<svg xmlns="http://www.w3.org/2000/svg" width="58" height="29" viewBox="0 0 58 29" fill="none"><path d="M0 28.75V25.6031C0 24.0594 0.845833 22.8125 2.5375 21.8625C4.22917 20.9125 6.40417 20.4375 9.0625 20.4375C9.58611 20.4375 10.0694 20.4474 10.5125 20.4672C10.9556 20.487 11.3986 20.5365 11.8417 20.6156C11.5194 21.2885 11.2778 21.9714 11.1167 22.6641C10.9556 23.3568 10.875 24.099 10.875 24.8906V28.75H0ZM14.5 28.75V24.8906C14.5 22.3177 15.8392 20.2396 18.5177 18.6562C21.1962 17.0729 24.6903 16.2812 29 16.2812C33.35 16.2812 36.8542 17.0729 39.5125 18.6562C42.1708 20.2396 43.5 22.3177 43.5 24.8906V28.75H14.5ZM47.125 28.75V24.8906C47.125 24.099 47.0545 23.3568 46.9135 22.6641C46.7726 21.9714 46.541 21.2885 46.2188 20.6156C46.6618 20.5365 47.1049 20.487 47.5479 20.4672C47.991 20.4474 48.4542 20.4375 48.9375 20.4375C51.6764 20.4375 53.8715 20.9125 55.5229 21.8625C57.1743 22.8125 58 24.0594 58 25.6031V28.75H47.125ZM29 19.8438C25.7778 19.8438 23.1597 20.3188 21.1458 21.2688C19.1319 22.2188 18.125 23.426 18.125 24.8906V25.1875H39.875V24.8313C39.875 23.4062 38.8781 22.2188 36.8844 21.2688C34.8906 20.3188 32.2625 19.8438 29 19.8438ZM9.0625 18.6562C7.89444 18.6562 6.89757 18.2505 6.07188 17.4391C5.24618 16.6276 4.83333 15.6479 4.83333 14.5C4.83333 13.3521 5.24618 12.3724 6.07188 11.5609C6.89757 10.7495 7.89444 10.3438 9.0625 10.3438C10.2306 10.3438 11.2274 10.7495 12.0531 11.5609C12.8788 12.3724 13.2917 13.3521 13.2917 14.5C13.2917 15.6479 12.8788 16.6276 12.0531 17.4391C11.2274 18.2505 10.2306 18.6562 9.0625 18.6562ZM48.9375 18.6562C47.7694 18.6562 46.7726 18.2505 45.9469 17.4391C45.1212 16.6276 44.7083 15.6479 44.7083 14.5C44.7083 13.3521 45.1212 12.3724 45.9469 11.5609C46.7726 10.7495 47.7694 10.3438 48.9375 10.3438C50.1056 10.3438 51.1024 10.7495 51.9281 11.5609C52.7538 12.3724 53.1667 13.3521 53.1667 14.5C53.1667 15.6479 52.7538 16.6276 51.9281 17.4391C51.1024 18.2505 50.1056 18.6562 48.9375 18.6562ZM29 14.5C26.9861 14.5 25.2743 13.8073 23.8646 12.4219C22.4549 11.0365 21.75 9.35417 21.75 7.375C21.75 5.35625 22.4549 3.66406 23.8646 2.29844C25.2743 0.932813 26.9861 0.25 29 0.25C31.0542 0.25 32.776 0.932813 34.1656 2.29844C35.5552 3.66406 36.25 5.35625 36.25 7.375C36.25 9.35417 35.5552 11.0365 34.1656 12.4219C32.776 13.8073 31.0542 14.5 29 14.5ZM29 3.8125C27.9931 3.8125 27.1372 4.14896 26.4323 4.82188C25.7274 5.49479 25.375 6.34583 25.375 7.375C25.375 8.36458 25.7274 9.20573 26.4323 9.89844C27.1372 10.5911 27.9931 10.9375 29 10.9375C30.0472 10.9375 30.9132 10.5911 31.5979 9.89844C32.2826 9.20573 32.625 8.36458 32.625 7.375C32.625 6.34583 32.2826 5.49479 31.5979 4.82188C30.9132 4.14896 30.0472 3.8125 29 3.8125Z" fill="white"></path></svg>