<svg xmlns="http://www.w3.org/2000/svg" width="39" height="39" viewBox="0 0 39 39" fill="none"><path d="M0.375 38.625V9.14062H9.14062V0.375H29.8594V17.9062H38.625V38.625H22.3156V29.8594H16.6844V38.625H0.375ZM3.5625 35.4375H9.14062V29.8594H3.5625V35.4375ZM3.5625 26.6719H9.14062V21.0938H3.5625V26.6719ZM3.5625 17.9062H9.14062V12.3281H3.5625V17.9062ZM12.3281 26.6719H17.9062V21.0938H12.3281V26.6719ZM12.3281 17.9062H17.9062V12.3281H12.3281V17.9062ZM12.3281 9.14062H17.9062V3.5625H12.3281V9.14062ZM21.0938 26.6719H26.6719V21.0938H21.0938V26.6719ZM21.0938 17.9062H26.6719V12.3281H21.0938V17.9062ZM21.0938 9.14062H26.6719V3.5625H21.0938V9.14062ZM29.8594 35.4375H35.4375V29.8594H29.8594V35.4375ZM29.8594 26.6719H35.4375V21.0938H29.8594V26.6719Z" fill="white"></path></svg>