<svg xmlns="http://www.w3.org/2000/svg" width="39" height="40" viewBox="0 0 39 40" fill="none"><path d="M19.1667 39.7084C16.4833 39.7084 13.9757 39.1944 11.6438 38.1662C9.31181 37.1381 7.28333 35.7428 5.55833 33.9803C3.83333 32.2178 2.47569 30.1371 1.48542 27.7381C0.495139 25.3391 0 22.7688 0 20.0272C0 17.2855 0.495139 14.7315 1.48542 12.3652C2.47569 9.99887 3.83333 7.93446 5.55833 6.17196C7.28333 4.40946 9.31181 3.03046 11.6438 2.03498C13.9757 1.03949 16.4833 0.541748 19.1667 0.541748C21.85 0.541748 24.3576 1.03949 26.6896 2.03498C29.0215 3.03046 31.05 4.40946 32.775 6.17196C34.5 7.93446 35.8576 9.99887 36.8479 12.3652C37.8382 14.7315 38.3333 17.2855 38.3333 20.0272C38.3333 22.7688 37.8382 25.3391 36.8479 27.7381C35.8576 30.1371 34.5 32.2178 32.775 33.9803C31.05 35.7428 29.0215 37.1381 26.6896 38.1662C24.3576 39.1944 21.85 39.7084 19.1667 39.7084ZM19.1667 36.8688C20.2847 35.6938 21.2191 34.3475 21.9698 32.8298C22.7205 31.3121 23.3354 29.5088 23.8146 27.4199H14.5667C15.0139 29.3782 15.6128 31.1407 16.3635 32.7074C17.1142 34.274 18.0486 35.6612 19.1667 36.8688ZM15.0938 36.2813C14.2951 35.0411 13.6083 33.7029 13.0333 32.2668C12.4583 30.8306 11.9792 29.215 11.5958 27.4199H4.40833C5.62222 29.7372 7.02778 31.5569 8.625 32.8787C10.2222 34.2006 12.3785 35.3348 15.0938 36.2813ZM23.2875 36.2324C25.5875 35.4817 27.6559 34.3556 29.4927 32.8542C31.3295 31.3529 32.8069 29.5414 33.925 27.4199H26.7854C26.3701 29.1824 25.883 30.7817 25.324 32.2178C24.7649 33.6539 24.0861 34.9921 23.2875 36.2324ZM3.45 24.4824H11.0688C10.9729 23.6011 10.917 22.8096 10.901 22.1079C10.8851 21.4062 10.8771 20.7126 10.8771 20.0272C10.8771 19.2112 10.8931 18.485 10.925 17.8485C10.9569 17.2121 11.0208 16.5022 11.1167 15.7188H3.45C3.22639 16.5022 3.07465 17.2039 2.99479 17.824C2.91493 18.4442 2.875 19.1786 2.875 20.0272C2.875 20.8758 2.91493 21.6346 2.99479 22.3037C3.07465 22.9728 3.22639 23.699 3.45 24.4824ZM14.0396 24.4824H24.3417C24.4694 23.4706 24.5493 22.6464 24.5813 22.01C24.6132 21.3735 24.6292 20.7126 24.6292 20.0272C24.6292 19.3744 24.6132 18.7461 24.5813 18.1423C24.5493 17.5385 24.4694 16.7306 24.3417 15.7188H14.0396C13.9118 16.7306 13.8319 17.5385 13.8 18.1423C13.7681 18.7461 13.7521 19.3744 13.7521 20.0272C13.7521 20.7126 13.7681 21.3735 13.8 22.01C13.8319 22.6464 13.9118 23.4706 14.0396 24.4824ZM27.2167 24.4824H34.8833C35.1069 23.699 35.2587 22.9728 35.3385 22.3037C35.4184 21.6346 35.4583 20.8758 35.4583 20.0272C35.4583 19.1786 35.4184 18.4442 35.3385 17.824C35.2587 17.2039 35.1069 16.5022 34.8833 15.7188H27.2646C27.3604 16.8612 27.4243 17.7343 27.4563 18.3381C27.4882 18.9419 27.5042 19.5049 27.5042 20.0272C27.5042 20.7452 27.4802 21.4225 27.4323 22.0589C27.3844 22.6954 27.3125 23.5032 27.2167 24.4824ZM26.7375 12.7813H33.925C32.8708 10.5292 31.4253 8.65251 29.5885 7.15112C27.7517 5.64973 25.6354 4.58897 23.2396 3.96883C24.0382 5.17647 24.717 6.48203 25.276 7.8855C25.8351 9.28897 26.3222 10.9209 26.7375 12.7813ZM14.5667 12.7813H23.8625C23.5111 11.0515 22.9201 9.37873 22.0896 7.7631C21.259 6.14748 20.2847 4.71953 19.1667 3.47925C18.1444 4.3605 17.2819 5.51918 16.5792 6.95529C15.8764 8.3914 15.2056 10.3334 14.5667 12.7813ZM4.40833 12.7813H11.6438C11.9951 11.0188 12.4424 9.44401 12.9854 8.05685C13.5285 6.6697 14.2153 5.32335 15.0458 4.01779C12.65 4.63793 10.5576 5.68237 8.76875 7.15112C6.97986 8.61987 5.52639 10.4966 4.40833 12.7813Z" fill="white"></path></svg>